<?xml version="1.0" standalone="no"?><!DOCTYPE svg PUBLIC "-//W3C//DTD SVG 1.1//EN" "http://www.w3.org/Graphics/SVG/1.1/DTD/svg11.dtd"><svg class="icon" width="200px" height="200.00px" viewBox="0 0 1024 1024" version="1.1" xmlns="http://www.w3.org/2000/svg"><path d="M849.0496 0c54.9376 0 99.9424 39.7824 99.9424 88.7296v304.2304c0 19.968-18.2272 36.096-40.704 36.096-22.4768 0-40.6528-16.128-40.6528-36.096v-304.128c0-8.8576-8.448-16.384-18.432-16.384H99.9424c-10.0352 0-18.432 7.5264-18.432 16.384V935.424c0 8.8576 8.3968 16.384 18.432 16.384h582.0416c22.4768 0 40.6528 16.128 40.6528 36.096 0 20.0704-18.176 36.096-40.6528 36.096H99.9424c-54.9888 0-99.9424-39.7824-99.9424-88.7296V88.7296C0 39.936 44.8 0 99.9424 0H848.9984z m96.4608 499.712c14.336-17.152 41.6256-20.736 60.928-8.0384 19.456 12.6976 23.4496 36.864 9.0112 54.2208l-247.6032 296.8576c-0.1024 0.256-0.4096 0.3584-0.512 0.6144l-0.8704 0.9728a5.632 5.632 0 0 1-0.8192 0.8704c-0.256 0.3584-0.7168 0.7168-0.9728 0.9728l-1.792 1.5872-1.024 0.768-0.9216 0.7168-1.024 0.768-0.9216 0.7168-1.1264 0.768c-0.256 0.2048-0.6656 0.3584-0.9728 0.6144l-1.2288 0.6144-1.024 0.512-1.2288 0.5632c-0.256 0.256-0.6656 0.3584-0.9216 0.512-0.4608 0.256-1.024 0.3584-1.4336 0.6144a7.168 7.168 0 0 0-0.9728 0.3584l-1.3824 0.512-0.8192 0.3584a7.5264 7.5264 0 0 1-1.536 0.512l-0.8192 0.2048a27.3408 27.3408 0 0 1-2.3552 0.6144c-0.5632 0-1.1264 0.1536-1.6896 0.256l-0.8192 0.1536c-0.6656 0.1024-1.2288 0.1024-1.792 0.256l-0.7168 0.1024-1.9456 0.1024h-0.6656c-0.8192 0.1536-1.6896 0.1536-2.5088 0.1536h-1.6384l-1.6896-0.1536-1.1264-0.1024-2.2016-0.256c-0.5632-0.1024-1.024-0.1024-1.3824-0.256l-1.9456-0.3584-1.3824-0.3584c-0.5632-0.256-1.28-0.3584-1.792-0.512l-1.536-0.512-1.6896-0.5632-1.536-0.6144-1.6384-0.768-1.3824-0.7168c-0.5632-0.4096-1.1264-0.6144-1.6896-0.8704l-1.3824-0.768-1.2288-0.7168-182.784-116.0704c-19.5584-12.288-24.1664-36.5056-10.1376-53.8624 13.8752-17.408 41.0624-21.4528 60.672-9.0112l147.9168 93.9008zM439.808 405.248c15.9232 0 30.9248 7.5264 38.8608 19.968a35.84 35.84 0 0 1 0 39.7824 46.3872 46.3872 0 0 1-38.912 19.968H235.264a46.08 46.08 0 0 1-38.8608-19.968 35.84 35.84 0 0 1 0-39.7824 46.336 46.336 0 0 1 38.912-19.968h204.544z m160.6656-182.3744c24.8832 0 44.8512 17.8688 44.8512 39.7824 0 22.016-20.1216 39.7824-44.8512 39.7824H235.2128c-24.832 0-44.8-17.8176-44.8-39.7824 0-22.016 20.1216-39.7824 44.8-39.7824h365.2608z" /></svg>