<?xml version="1.0" standalone="no"?><!DOCTYPE svg PUBLIC "-//W3C//DTD SVG 1.1//EN" "http://www.w3.org/Graphics/SVG/1.1/DTD/svg11.dtd"><svg class="icon" width="200px" height="200.00px" viewBox="0 0 1024 1024" version="1.1" xmlns="http://www.w3.org/2000/svg"><path d="M807.1 343.4L638.5 512H765c0 139.5-113.4 252.9-252.9 252.9-42.6 0-83.1-10.5-118-29.5L332.4 797c51.9 32.9 113.4 52.3 179.6 52.3 186.3 0 337.3-150.9 337.3-337.3h126.5L807.1 343.4zM259.1 512c0-139.5 113.4-252.9 252.9-252.9 42.6 0 83.1 10.5 118 29.5l61.6-61.6c-51.9-32.9-113.4-52.3-179.6-52.3-186.3 0-337.3 150.9-337.3 337.3H48.3l168.6 168.6L385.5 512H259.1z" /></svg>