<?xml version="1.0" standalone="no"?><!DOCTYPE svg PUBLIC "-//W3C//DTD SVG 1.1//EN" "http://www.w3.org/Graphics/SVG/1.1/DTD/svg11.dtd"><svg class="icon" width="200px" height="200.00px" viewBox="0 0 1024 1024" version="1.1" xmlns="http://www.w3.org/2000/svg"><path d="M416.925538 721.211077l-56.418461 161.555692 167.68-53.326769 319.645538-305.132308-112.324923-107.204923-315.490461 301.154462-3.091693 2.953846zM735.507692 466.097231l60.987077 58.210461L509.617231 798.129231l-92.278154 29.361231 30.227692-86.567385L735.507692 466.097231zM216.615385 728.615385h98.461538v39.384615h-98.461538z"  /><path d="M846.769231 98.461538h-78.769231a59.076923 59.076923 0 1 0-118.153846 0h-78.769231a59.076923 59.076923 0 1 0-118.153846 0h-78.769231a59.076923 59.076923 0 1 0-118.153846 0H177.230769a78.769231 78.769231 0 0 0-78.769231 78.769231v708.923077a78.769231 78.769231 0 0 0 78.769231 78.769231h669.538462a78.769231 78.769231 0 0 0 78.769231-78.769231V177.230769a78.769231 78.769231 0 0 0-78.769231-78.769231z m-157.538462 0a19.692308 19.692308 0 0 1 39.384616 0v39.384616a19.692308 19.692308 0 0 1-39.384616 0V98.461538zM492.307692 98.461538a19.692308 19.692308 0 0 1 39.384616 0v39.384616a19.692308 19.692308 0 0 1-39.384616 0V98.461538zM295.384615 98.461538a19.692308 19.692308 0 0 1 39.384616 0v39.384616a19.692308 19.692308 0 0 1-39.384616 0V98.461538z m590.769231 787.692308a39.384615 39.384615 0 0 1-39.384615 39.384616H177.230769a39.384615 39.384615 0 0 1-39.384615-39.384616V315.076923h748.307692v571.076923z m0-610.461538H137.846154V177.230769a39.384615 39.384615 0 0 1 39.384615-39.384615h78.769231a59.076923 59.076923 0 1 0 118.153846 0h78.769231a59.076923 59.076923 0 1 0 118.153846 0h78.769231a59.076923 59.076923 0 1 0 118.153846 0h78.769231a39.384615 39.384615 0 0 1 39.384615 39.384615v98.461539z"  /><path d="M216.615385 610.461538h177.230769v39.384616h-177.230769zM216.615385 492.307692h256v39.384616H216.615385z"  /></svg>