<?xml version="1.0" standalone="no"?><!DOCTYPE svg PUBLIC "-//W3C//DTD SVG 1.1//EN" "http://www.w3.org/Graphics/SVG/1.1/DTD/svg11.dtd"><svg class="icon" width="200px" height="200.00px" viewBox="0 0 1024 1024" version="1.1" xmlns="http://www.w3.org/2000/svg"><path d="M1009.769825 35.243491c3.370664 10.325325 3.41333 21.418649 0 31.743973l-132.778556 409.898325a42.666631 42.666631 0 1 1-81.194599-26.325311l91.050591-280.959766-572.372856 424.106313 5.503995 6.186662-12.885323 180.437183 83.498598-68.863943a42.666631 42.666631 0 0 1 56.405286 1.834665l3.66933 3.92533a42.666631 42.666631 0 0 1-1.834665 56.405287l-3.92533 3.626663L300.010417 896.853439a51.199957 51.199957 0 0 1-83.754597-37.546635l0.085333-5.546662 15.95732-224.04248-219.306484-246.399795A51.199957 51.199957 0 0 1 13.290656 314.965924l3.967996-3.92533a51.199957 51.199957 0 0 1 13.226656-8.533326l4.863996-1.877332L945.172546 2.560851a51.199957 51.199957 0 0 1 64.597279 32.68264z m-236.415803 113.365238L111.381241 365.483215l146.773211 164.90653 515.19957-381.781016z" fill="#191919" /><path d="M746.730044 810.666844m-63.999946 0a63.999947 63.999947 0 1 0 127.999893 0 63.999947 63.999947 0 1 0-127.999893 0Z" fill="#191919" /><path d="M867.689944 597.333689h-241.919799l-119.978566 213.333155 119.978566 213.333156h241.919799l119.978566-213.333156-119.978566-213.333155z m-49.919959 85.333262l71.978607 127.999893-72.021273 127.999894H675.690104L603.66883 810.666844l71.978607-127.999893h142.122548z" fill="#191919" /></svg>