<?xml version="1.0" standalone="no"?><!DOCTYPE svg PUBLIC "-//W3C//DTD SVG 1.1//EN" "http://www.w3.org/Graphics/SVG/1.1/DTD/svg11.dtd"><svg class="icon" width="200px" height="200.00px" viewBox="0 0 1024 1024" version="1.1" xmlns="http://www.w3.org/2000/svg"><path d="M309.3 130.7h-70.9c-24.3 0-44 19.7-44 44v674.5c0 24.3 19.7 44 44 44h70.9c24.3 0 44-19.7 44-44V174.7c0-24.3-19.7-44-44-44z m476.3 0h-70.9c-24.3 0-44 19.7-44 44v674.5c0 24.3 19.7 44 44 44h70.9c24.3 0 44-19.7 44-44V174.7c0-24.3-19.7-44-44-44z" /></svg>