<?xml version="1.0" standalone="no"?><!DOCTYPE svg PUBLIC "-//W3C//DTD SVG 1.1//EN" "http://www.w3.org/Graphics/SVG/1.1/DTD/svg11.dtd"><svg class="icon" width="200px" height="200.00px" viewBox="0 0 1024 1024" version="1.1" xmlns="http://www.w3.org/2000/svg"><path d="M213.970149 649.552239h305.671642c15.283582 0 22.925373-15.283582 22.925373-30.567164s-15.283582-30.567164-22.925373-30.567165h-305.671642c-15.283582 0-22.925373 15.283582-22.925373 30.567165s15.283582 30.567164 22.925373 30.567164zM588.41791 420.298507H221.61194c-15.283582 0-22.925373 15.283582-22.925373 30.567165s15.283582 30.567164 22.925373 30.567164h374.447761c15.283582 0 22.925373-15.283582 22.925374-30.567164 0-22.925373-15.283582-30.567164-30.567165-30.567165zM626.626866 84.059701h53.492537c30.567164 0 53.492537 22.925373 53.492537 61.134329v298.029851h53.492538V145.19403C787.104478 76.41791 748.895522 30.567164 687.761194 30.567164h-53.492537c-15.283582 0-30.567164 7.641791-30.567164 22.925373 0 15.283582 15.283582 30.567164 22.925373 30.567164zM458.507463 863.522388H145.19403c-30.567164 0-61.134328-22.925373-61.134329-61.134328V145.19403c0-38.208955 22.925373-61.134328 53.492538-61.134329h61.134328c15.283582 0 22.925373-15.283582 22.925373-30.567164S213.970149 30.567164 198.686567 30.567164h-68.776119C61.134328 30.567164 30.567164 76.41791 30.567164 145.19403v657.19403c0 68.776119 38.208955 122.268657 106.985075 122.268656h328.597015l-7.641791-61.134328z m-137.552239-764.179104h175.761194c22.925373 0 38.208955-22.925373 38.208955-53.492538C527.283582 22.925373 512 0 489.074627 0H320.955224c-22.925373 0-38.208955 22.925373-38.208955 53.492537 0 22.925373 15.283582 45.850746 38.208955 45.850747z m0 0M191.044776 290.38806c0 15.283582 15.283582 30.567164 22.925373 30.567164h374.447761c15.283582 0 22.925373-15.283582 22.925374-30.567164s-15.283582-30.567164-22.925374-30.567164H221.61194c-15.283582 0-30.567164 15.283582-30.567164 30.567164zM466.149254 894.089552m-30.567164 0a30.567164 30.567164 0 1 0 61.134328 0 30.567164 30.567164 0 1 0-61.134328 0ZM962.865672 489.074627c-7.641791-7.641791-22.925373-7.641791-30.567165 0L641.910448 863.522388s0 7.641791-7.641791 7.641791V1001.074627c0 7.641791 7.641791 22.925373 22.925373 22.925373 7.641791 0 22.925373-7.641791 22.925373-22.925373v-114.626866l290.38806-366.80597c0-15.283582 0-22.925373-7.641791-30.567164z m-412.656717 359.164179c0 7.641791 7.641791 15.283582 7.641791 15.283582h22.925373c7.641791 0 7.641791-7.641791 7.641791-15.283582s-7.641791-15.283582-7.641791-15.283582h-22.925373s-7.641791 7.641791-7.641791 15.283582z m0 0M993.432836 496.716418c0-22.925373-22.925373-38.208955-45.850746-38.208955-7.641791 0-22.925373 0-22.925374 7.641791L450.865672 741.253731c-15.283582 7.641791-22.925373 22.925373-22.925373 38.208956s7.641791 30.567164 22.925373 38.208955l38.208955 15.283582h7.641791c7.641791 0 22.925373-7.641791 22.925373-22.925373 0-7.641791-7.641791-15.283582-7.641791-15.283582l-22.925373-7.641791-7.641791-7.641791s0-7.641791 7.641791-7.641791l443.22388-252.179105h7.641792c7.641791 0 7.641791 7.641791 7.641791 7.641791l-84.059702 427.940299c0 7.641791-7.641791 7.641791-7.641791 7.641791h-7.641791L748.895522 917.014925h-7.641791c-15.283582-15.283582-22.925373 0-22.925373 7.641791s7.641791 15.283582 15.283582 22.925374l114.626866 53.492537h15.283582c22.925373 0 38.208955-15.283582 38.208955-30.567164l84.059702-450.865672s7.641791-15.283582 7.641791-22.925373z m0 0M756.537313 435.58209m-22.925373 0a22.925373 22.925373 0 1 0 45.850747 0 22.925373 22.925373 0 1 0-45.850747 0Z" /></svg>